<svg xmlns="http://www.w3.org/2000/svg" width="800" height="500" viewBox="0 0 800 500">
<rect width="100%" height="100%" fill="#f7f6f3"/>
<text x="32" y="42" font-size="24" font-family="Arial, Helvetica, sans-serif" font-weight="700" fill="#1f2937">硬件与环境就绪情况</text>
<rect x="40" y="86" width="320" height="64" rx="14" fill="#e0f2fe" stroke="#7dd3fc"/>
<text x="60" y="112" font-size="14" font-family="Arial, Helvetica, sans-serif" fill="#0f172a">MUSA 后端</text>
<text x="60" y="135" font-size="24" font-family="Arial, Helvetica, sans-serif" font-weight="700" fill="#0369a1">是</text>
<rect x="400" y="86" width="320" height="64" rx="14" fill="#e0f2fe" stroke="#7dd3fc"/>
<text x="420" y="112" font-size="14" font-family="Arial, Helvetica, sans-serif" fill="#0f172a">可见设备数</text>
<text x="420" y="135" font-size="24" font-family="Arial, Helvetica, sans-serif" font-weight="700" fill="#0369a1">2</text>
<rect x="40" y="174" width="320" height="64" rx="14" fill="#e0f2fe" stroke="#7dd3fc"/>
<text x="60" y="200" font-size="14" font-family="Arial, Helvetica, sans-serif" fill="#0f172a">Python 依赖</text>
<text x="60" y="223" font-size="24" font-family="Arial, Helvetica, sans-serif" font-weight="700" fill="#0369a1">就绪</text>
<rect x="400" y="174" width="320" height="64" rx="14" fill="#e0f2fe" stroke="#7dd3fc"/>
<text x="420" y="200" font-size="14" font-family="Arial, Helvetica, sans-serif" fill="#0f172a">单卡可见</text>
<text x="420" y="223" font-size="24" font-family="Arial, Helvetica, sans-serif" font-weight="700" fill="#0369a1">是</text>
<rect x="40" y="262" width="320" height="64" rx="14" fill="#e0f2fe" stroke="#7dd3fc"/>
<text x="60" y="288" font-size="14" font-family="Arial, Helvetica, sans-serif" fill="#0f172a">双卡可见</text>
<text x="60" y="311" font-size="24" font-family="Arial, Helvetica, sans-serif" font-weight="700" fill="#0369a1">是</text>
<text x="40" y="360" font-size="16" font-family="Arial, Helvetica, sans-serif" fill="#111827" font-weight="700">设备列表</text>
<rect x="40" y="378" width="220" height="28" rx="10" fill="#dbeafe"/>
<text x="56" y="397" font-size="14" font-family="Arial, Helvetica, sans-serif" fill="#1d4ed8">musa:0</text>
<rect x="40" y="420" width="220" height="28" rx="10" fill="#dbeafe"/>
<text x="56" y="439" font-size="14" font-family="Arial, Helvetica, sans-serif" fill="#1d4ed8">musa:1</text>
</svg>
