<svg xmlns="http://www.w3.org/2000/svg" width="800" height="430" viewBox="0 0 800 430">
<rect width="100%" height="100%" fill="#f7f6f3"/>
<text x="32" y="42" font-size="24" font-family="Arial, Helvetica, sans-serif" font-weight="700" fill="#1f2937">A-F 指标完成情况</text>
<rect x="40" y="80" width="720" height="34" rx="8" fill="#d1fae5"/>
<rect x="40" y="80" width="720" height="34" rx="8" fill="#16a34a"/>
<text x="56" y="103" font-size="16" font-family="Arial, Helvetica, sans-serif" fill="#ffffff" font-weight="700">A</text>
<text x="96" y="103" font-size="16" font-family="Arial, Helvetica, sans-serif" fill="#ffffff">已完成</text>
<rect x="40" y="128" width="720" height="34" rx="8" fill="#d1fae5"/>
<rect x="40" y="128" width="720" height="34" rx="8" fill="#16a34a"/>
<text x="56" y="151" font-size="16" font-family="Arial, Helvetica, sans-serif" fill="#ffffff" font-weight="700">B</text>
<text x="96" y="151" font-size="16" font-family="Arial, Helvetica, sans-serif" fill="#ffffff">已完成</text>
<rect x="40" y="176" width="720" height="34" rx="8" fill="#d1fae5"/>
<rect x="40" y="176" width="720" height="34" rx="8" fill="#16a34a"/>
<text x="56" y="199" font-size="16" font-family="Arial, Helvetica, sans-serif" fill="#ffffff" font-weight="700">C</text>
<text x="96" y="199" font-size="16" font-family="Arial, Helvetica, sans-serif" fill="#ffffff">已完成</text>
<rect x="40" y="224" width="720" height="34" rx="8" fill="#d1fae5"/>
<rect x="40" y="224" width="720" height="34" rx="8" fill="#16a34a"/>
<text x="56" y="247" font-size="16" font-family="Arial, Helvetica, sans-serif" fill="#ffffff" font-weight="700">D</text>
<text x="96" y="247" font-size="16" font-family="Arial, Helvetica, sans-serif" fill="#ffffff">已完成</text>
<rect x="40" y="272" width="720" height="34" rx="8" fill="#d1fae5"/>
<rect x="40" y="272" width="720" height="34" rx="8" fill="#16a34a"/>
<text x="56" y="295" font-size="16" font-family="Arial, Helvetica, sans-serif" fill="#ffffff" font-weight="700">E</text>
<text x="96" y="295" font-size="16" font-family="Arial, Helvetica, sans-serif" fill="#ffffff">已完成</text>
<rect x="40" y="320" width="720" height="34" rx="8" fill="#d1fae5"/>
<rect x="40" y="320" width="720" height="34" rx="8" fill="#16a34a"/>
<text x="56" y="343" font-size="16" font-family="Arial, Helvetica, sans-serif" fill="#ffffff" font-weight="700">F</text>
<text x="96" y="343" font-size="16" font-family="Arial, Helvetica, sans-serif" fill="#ffffff">已完成</text>
<text x="40" y="390" font-size="14" font-family="Arial, Helvetica, sans-serif" fill="#4b5563">结论：5.1.5 A-F 指标均已完成</text>
</svg>
