<svg xmlns="http://www.w3.org/2000/svg" width="900" height="420" viewBox="0 0 900 420">
<rect width="100%" height="100%" fill="#f8fafc"/>
<text x="32" y="40" font-size="24" font-family="Arial, Helvetica, sans-serif" font-weight="700" fill="#0f172a">训练任务 DAG 图</text>
<rect x="60" y="110" width="140" height="40" rx="10" fill="#dbeafe" stroke="#94a3b8"/>
<text x="72" y="135" font-size="12" font-family="Arial, Helvetica, sans-serif" fill="#0f172a">dataset_loader</text>
<line x1="150" y1="130" x2="210" y2="130" stroke="#64748b" stroke-width="3"/>
<rect x="210" y="110" width="140" height="40" rx="10" fill="#dbeafe" stroke="#94a3b8"/>
<text x="222" y="135" font-size="12" font-family="Arial, Helvetica, sans-serif" fill="#0f172a">tokenizer_collator</text>
<line x1="300" y1="130" x2="380" y2="130" stroke="#64748b" stroke-width="3"/>
<rect x="380" y="110" width="140" height="40" rx="10" fill="#dbeafe" stroke="#94a3b8"/>
<text x="392" y="135" font-size="12" font-family="Arial, Helvetica, sans-serif" fill="#0f172a">dispatch_microbatch</text>
<line x1="470" y1="130" x2="560" y2="100" stroke="#64748b" stroke-width="3"/>
<rect x="560" y="80" width="140" height="40" rx="10" fill="#dcfce7" stroke="#94a3b8"/>
<text x="572" y="105" font-size="12" font-family="Arial, Helvetica, sans-serif" fill="#0f172a">stage0_forward</text>
<line x1="650" y1="100" x2="730" y2="100" stroke="#64748b" stroke-width="3"/>
<rect x="730" y="80" width="140" height="40" rx="10" fill="#fee2e2" stroke="#94a3b8"/>
<text x="742" y="105" font-size="12" font-family="Arial, Helvetica, sans-serif" fill="#0f172a">p2p_transfer_0_to_1</text>
<line x1="820" y1="100" x2="560" y2="190" stroke="#64748b" stroke-width="3"/>
<rect x="560" y="170" width="140" height="40" rx="10" fill="#dcfce7" stroke="#94a3b8"/>
<text x="572" y="195" font-size="12" font-family="Arial, Helvetica, sans-serif" fill="#0f172a">stage1_forward</text>
<line x1="650" y1="190" x2="730" y2="190" stroke="#64748b" stroke-width="3"/>
<rect x="730" y="170" width="140" height="40" rx="10" fill="#dcfce7" stroke="#94a3b8"/>
<text x="742" y="195" font-size="12" font-family="Arial, Helvetica, sans-serif" fill="#0f172a">loss_backward_stage1</text>
<line x1="820" y1="190" x2="560" y2="280" stroke="#64748b" stroke-width="3"/>
<rect x="560" y="260" width="140" height="40" rx="10" fill="#fee2e2" stroke="#94a3b8"/>
<text x="572" y="285" font-size="12" font-family="Arial, Helvetica, sans-serif" fill="#0f172a">p2p_grad_1_to_0</text>
<line x1="650" y1="280" x2="730" y2="280" stroke="#64748b" stroke-width="3"/>
<rect x="730" y="260" width="140" height="40" rx="10" fill="#dcfce7" stroke="#94a3b8"/>
<text x="742" y="285" font-size="12" font-family="Arial, Helvetica, sans-serif" fill="#0f172a">loss_backward_stage0</text>
<line x1="820" y1="280" x2="380" y2="340" stroke="#64748b" stroke-width="3"/>
<rect x="380" y="320" width="140" height="40" rx="10" fill="#dcfce7" stroke="#94a3b8"/>
<text x="392" y="345" font-size="12" font-family="Arial, Helvetica, sans-serif" fill="#0f172a">optimizer_step</text>
<line x1="470" y1="340" x2="210" y2="340" stroke="#64748b" stroke-width="3"/>
<rect x="210" y="320" width="140" height="40" rx="10" fill="#dbeafe" stroke="#94a3b8"/>
<text x="222" y="345" font-size="12" font-family="Arial, Helvetica, sans-serif" fill="#0f172a">checkpoint_writer</text>
</svg>
