<svg xmlns="http://www.w3.org/2000/svg" width="900" height="450" viewBox="0 0 900 450">
<rect width="100%" height="100%" fill="#f8fafc"/>
<text x="32" y="40" font-size="24" font-family="Arial, Helvetica, sans-serif" font-weight="700" fill="#0f172a">A-H 指标完成情况</text>
<rect x="36" y="78" width="780" height="32" rx="8" fill="#16a34a"/>
<text x="54" y="99" font-size="15" font-family="Arial, Helvetica, sans-serif" fill="#fff" font-weight="700">A</text>
<text x="96" y="99" font-size="15" font-family="Arial, Helvetica, sans-serif" fill="#fff">已完成</text>
<rect x="36" y="120" width="780" height="32" rx="8" fill="#16a34a"/>
<text x="54" y="141" font-size="15" font-family="Arial, Helvetica, sans-serif" fill="#fff" font-weight="700">B</text>
<text x="96" y="141" font-size="15" font-family="Arial, Helvetica, sans-serif" fill="#fff">已完成</text>
<rect x="36" y="162" width="780" height="32" rx="8" fill="#16a34a"/>
<text x="54" y="183" font-size="15" font-family="Arial, Helvetica, sans-serif" fill="#fff" font-weight="700">C</text>
<text x="96" y="183" font-size="15" font-family="Arial, Helvetica, sans-serif" fill="#fff">已完成</text>
<rect x="36" y="204" width="780" height="32" rx="8" fill="#16a34a"/>
<text x="54" y="225" font-size="15" font-family="Arial, Helvetica, sans-serif" fill="#fff" font-weight="700">D</text>
<text x="96" y="225" font-size="15" font-family="Arial, Helvetica, sans-serif" fill="#fff">已完成</text>
<rect x="36" y="246" width="780" height="32" rx="8" fill="#16a34a"/>
<text x="54" y="267" font-size="15" font-family="Arial, Helvetica, sans-serif" fill="#fff" font-weight="700">E</text>
<text x="96" y="267" font-size="15" font-family="Arial, Helvetica, sans-serif" fill="#fff">已完成</text>
<rect x="36" y="288" width="780" height="32" rx="8" fill="#16a34a"/>
<text x="54" y="309" font-size="15" font-family="Arial, Helvetica, sans-serif" fill="#fff" font-weight="700">F</text>
<text x="96" y="309" font-size="15" font-family="Arial, Helvetica, sans-serif" fill="#fff">已完成</text>
<rect x="36" y="330" width="780" height="32" rx="8" fill="#16a34a"/>
<text x="54" y="351" font-size="15" font-family="Arial, Helvetica, sans-serif" fill="#fff" font-weight="700">G</text>
<text x="96" y="351" font-size="15" font-family="Arial, Helvetica, sans-serif" fill="#fff">已完成</text>
<rect x="36" y="372" width="780" height="32" rx="8" fill="#16a34a"/>
<text x="54" y="393" font-size="15" font-family="Arial, Helvetica, sans-serif" fill="#fff" font-weight="700">H</text>
<text x="96" y="393" font-size="15" font-family="Arial, Helvetica, sans-serif" fill="#fff">已完成</text>
</svg>
